<?xml version="1.0" encoding="UTF-8"?>
<svg id="_오른쪽글씨" data-name="오른쪽글씨" xmlns="http://www.w3.org/2000/svg" viewBox="0 0 1080 657.79">
  <defs>
    <style>
      .cls-1 {
        fill: #000;
        stroke-width: 0px;
      }
    </style>
  </defs>
  <g>
    <rect class="cls-1" x="339" y="225" width="198" height="54"/>
    <rect class="cls-1" x="339" y="297" width="198" height="54"/>
    <rect class="cls-1" x="339" y="369" width="198" height="54"/>
    <polygon class="cls-1" points="753 423 555 423 555 225 654 324 753 225 753 423"/>
    <polygon class="cls-1" points="222 423 123 225 321 225 222 423"/>
    <rect class="cls-1" x="51" y="225" width="54" height="54" rx="27" ry="27"/>
    <rect class="cls-1" x="51" y="297" width="54" height="126"/>
  </g>
  <g>
    <path class="cls-1" d="M786.03,327.67v-28.89h3.28v28.89h-3.28Z"/>
    <path class="cls-1" d="M797.04,327.67v-21.31h2.64l.32,3.12h.12c1.03-1.03,2.11-1.89,3.26-2.61,1.14-.71,2.45-1.07,3.93-1.07,2.24,0,3.88.7,4.93,2.11,1.05,1.41,1.58,3.48,1.58,6.22v13.54h-3.24v-13.14c0-2.05-.33-3.55-.99-4.5s-1.74-1.42-3.24-1.42c-1.13,0-2.15.29-3.06.87s-1.91,1.43-3.02,2.57v15.63h-3.24Z"/>
    <path class="cls-1" d="M827.43,328.18c-1.47,0-2.64-.29-3.51-.87-.87-.58-1.48-1.39-1.83-2.43-.36-1.04-.53-2.26-.53-3.65v-12.27h-3.24v-2.41l3.35-.2.39-6.04h2.68v6.04h5.88v2.6h-5.88v12.39c0,1.32.24,2.34.71,3.08.47.74,1.35,1.11,2.64,1.11.4,0,.82-.06,1.28-.18.46-.12.86-.26,1.2-.42l.67,2.45c-.61.21-1.24.39-1.91.55-.67.16-1.31.24-1.91.24Z"/>
    <path class="cls-1" d="M843.37,328.18c-1.89,0-3.6-.44-5.13-1.32-1.53-.88-2.74-2.16-3.65-3.83-.91-1.67-1.36-3.66-1.36-5.98,0-1.76.26-3.33.77-4.7.51-1.37,1.22-2.55,2.13-3.53.91-.99,1.93-1.74,3.06-2.25s2.32-.77,3.55-.77c1.76,0,3.27.4,4.52,1.2s2.21,1.95,2.88,3.45c.67,1.5,1.01,3.28,1.01,5.33,0,.34-.01.68-.04,1.01-.03.33-.07.64-.12.93h-14.56c.05,1.58.39,2.95,1.03,4.12s1.48,2.08,2.55,2.74c1.07.66,2.31.99,3.73.99,1.05,0,2.01-.15,2.88-.45.87-.3,1.71-.73,2.53-1.28l1.14,2.21c-.89.58-1.9,1.08-3.02,1.5-1.12.42-2.41.63-3.89.63ZM836.39,315.35h11.92c0-2.26-.49-3.99-1.46-5.17-.97-1.18-2.33-1.78-4.07-1.78-1.05,0-2.04.28-2.96.83-.92.55-1.68,1.34-2.29,2.37s-.99,2.28-1.14,3.75Z"/>
    <path class="cls-1" d="M856.52,327.67v-21.31h2.64l.31,3.91h.12c.74-1.34,1.62-2.42,2.66-3.24s2.16-1.22,3.38-1.22c.47,0,.88.03,1.22.1.34.07.68.19,1.03.38l-.63,2.8c-.37-.13-.69-.22-.97-.28-.28-.05-.64-.08-1.08-.08-.9,0-1.84.38-2.84,1.14-1,.76-1.87,2.07-2.6,3.91v13.89h-3.24Z"/>
    <path class="cls-1" d="M875.22,328.18c-1.16,0-2.2-.23-3.14-.69-.93-.46-1.68-1.14-2.23-2.03s-.83-1.99-.83-3.28c0-2.34,1.06-4.13,3.18-5.37,2.12-1.24,5.47-2.1,10.04-2.61.03-.97-.08-1.89-.33-2.76-.25-.87-.7-1.58-1.36-2.13-.66-.55-1.6-.83-2.84-.83s-2.49.25-3.59.75c-1.1.5-2.07,1.04-2.88,1.62l-1.26-2.29c.6-.39,1.33-.8,2.17-1.22s1.78-.78,2.8-1.08c1.03-.3,2.12-.45,3.28-.45,1.71,0,3.1.37,4.16,1.11s1.84,1.75,2.33,3.04c.49,1.29.73,2.79.73,4.5v13.22h-2.6l-.32-2.6h-.12c-1.03.87-2.14,1.6-3.35,2.21-1.21.6-2.49.91-3.83.91ZM876.09,325.57c1.08,0,2.1-.26,3.08-.77.97-.51,2-1.24,3.08-2.19v-6.24c-2.5.29-4.49.68-5.98,1.18-1.49.5-2.55,1.12-3.18,1.85-.63.74-.95,1.59-.95,2.57,0,1.29.38,2.21,1.14,2.76s1.7.83,2.8.83Z"/>
    <path class="cls-1" d="M900.68,328.18c-1.87,0-3.55-.44-5.05-1.32-1.5-.88-2.68-2.15-3.55-3.81-.87-1.66-1.3-3.66-1.3-6s.47-4.43,1.4-6.1c.93-1.67,2.18-2.95,3.73-3.83s3.22-1.32,5.01-1.32c1.39,0,2.6.26,3.61.77,1.01.51,1.89,1.11,2.62,1.8l-1.7,2.09c-.61-.58-1.27-1.05-1.99-1.4-.72-.36-1.53-.53-2.43-.53-1.32,0-2.5.35-3.55,1.07-1.05.71-1.88,1.7-2.49,2.98-.61,1.28-.91,2.77-.91,4.48s.29,3.16.87,4.42c.58,1.26,1.38,2.25,2.41,2.96,1.03.71,2.22,1.07,3.59,1.07,1.03,0,1.97-.22,2.84-.65.87-.43,1.64-.95,2.33-1.56l1.42,2.17c-.95.84-2.01,1.51-3.18,1.99-1.17.49-2.4.73-3.69.73Z"/>
    <path class="cls-1" d="M918.32,328.18c-1.47,0-2.64-.29-3.51-.87-.87-.58-1.48-1.39-1.83-2.43s-.53-2.26-.53-3.65v-12.27h-3.24v-2.41l3.36-.2.39-6.04h2.68v6.04h5.88v2.6h-5.88v12.39c0,1.32.24,2.34.71,3.08.47.74,1.35,1.11,2.64,1.11.4,0,.82-.06,1.28-.18.46-.12.86-.26,1.21-.42l.67,2.45c-.61.21-1.24.39-1.91.55-.67.16-1.31.24-1.91.24Z"/>
    <path class="cls-1" d="M928.07,301.78c-.66,0-1.19-.2-1.6-.61-.41-.41-.61-.95-.61-1.64s.2-1.18.61-1.58c.41-.39.94-.59,1.6-.59s1.16.2,1.58.59.63.92.63,1.58-.21,1.23-.63,1.64c-.42.41-.95.61-1.58.61ZM926.41,327.67v-21.31h3.24v21.31h-3.24Z"/>
    <path class="cls-1" d="M941.61,327.67l-7.77-21.31h3.35l4.18,12.43c.34,1.03.68,2.07,1.03,3.12.34,1.05.67,2.09.99,3.12h.2c.34-1.03.68-2.07,1.01-3.12.33-1.05.66-2.09,1.01-3.12l4.22-12.43h3.16l-7.62,21.31h-3.75Z"/>
    <path class="cls-1" d="M965.49,328.18c-1.89,0-3.61-.44-5.13-1.32-1.53-.88-2.74-2.16-3.65-3.83-.91-1.67-1.36-3.66-1.36-5.98,0-1.76.26-3.33.77-4.7s1.22-2.55,2.13-3.53c.91-.99,1.93-1.74,3.06-2.25,1.13-.51,2.31-.77,3.55-.77,1.76,0,3.27.4,4.52,1.2s2.21,1.95,2.88,3.45,1.01,3.28,1.01,5.33c0,.34-.01.68-.04,1.01s-.07.64-.12.93h-14.56c.05,1.58.4,2.95,1.03,4.12.63,1.17,1.48,2.08,2.54,2.74,1.07.66,2.31.99,3.73.99,1.05,0,2.01-.15,2.88-.45.87-.3,1.71-.73,2.53-1.28l1.14,2.21c-.89.58-1.9,1.08-3.02,1.5-1.12.42-2.41.63-3.89.63ZM958.5,315.35h11.92c0-2.26-.49-3.99-1.46-5.17s-2.33-1.78-4.06-1.78c-1.05,0-2.04.28-2.96.83s-1.68,1.34-2.29,2.37-.99,2.28-1.14,3.75Z"/>
    <path class="cls-1" d="M792.06,375.03v-26.13h-8.8v-2.76h20.96v2.76h-8.84v26.13h-3.32Z"/>
    <path class="cls-1" d="M809.47,375.03v-28.89h16.46v2.76h-13.18v9.51h11.09v2.76h-11.09v11.09h13.62v2.76h-16.89Z"/>
    <path class="cls-1" d="M839.94,375.54c-1.87,0-3.55-.44-5.05-1.32-1.5-.88-2.68-2.15-3.55-3.81-.87-1.66-1.3-3.66-1.3-6s.47-4.43,1.4-6.1c.93-1.67,2.18-2.95,3.73-3.83s3.22-1.32,5.01-1.32c1.39,0,2.6.26,3.61.77,1.01.51,1.89,1.11,2.62,1.8l-1.7,2.09c-.61-.58-1.27-1.05-1.99-1.4-.72-.36-1.53-.53-2.43-.53-1.32,0-2.5.35-3.55,1.07-1.05.71-1.88,1.7-2.49,2.98-.61,1.28-.91,2.77-.91,4.48s.29,3.16.87,4.42c.58,1.26,1.38,2.25,2.41,2.96,1.03.71,2.22,1.07,3.59,1.07,1.03,0,1.97-.22,2.84-.65.87-.43,1.64-.95,2.33-1.56l1.42,2.17c-.95.84-2.01,1.51-3.18,1.99-1.17.49-2.4.73-3.69.73Z"/>
    <path class="cls-1" d="M851.62,375.03v-31.42h3.24v8.72l-.12,4.46c1-1,2.07-1.85,3.22-2.57,1.14-.71,2.45-1.07,3.93-1.07,2.24,0,3.88.7,4.93,2.11,1.05,1.41,1.58,3.48,1.58,6.22v13.54h-3.24v-13.14c0-2.05-.33-3.55-.99-4.5s-1.74-1.42-3.24-1.42c-1.13,0-2.15.29-3.06.87s-1.92,1.43-3.02,2.57v15.63h-3.24Z"/>
    <path class="cls-1" d="M875.38,375.03v-21.31h2.64l.32,3.12h.12c1.03-1.03,2.11-1.89,3.26-2.61,1.14-.71,2.45-1.07,3.93-1.07,2.24,0,3.88.7,4.93,2.11,1.05,1.41,1.58,3.48,1.58,6.22v13.54h-3.24v-13.14c0-2.05-.33-3.55-.99-4.5-.66-.95-1.74-1.42-3.24-1.42-1.13,0-2.15.29-3.06.87-.91.58-1.91,1.43-3.02,2.57v15.63h-3.24Z"/>
    <path class="cls-1" d="M907.43,375.54c-1.74,0-3.35-.44-4.84-1.32-1.49-.88-2.68-2.15-3.59-3.81-.91-1.66-1.36-3.66-1.36-6s.46-4.43,1.36-6.1,2.1-2.95,3.59-3.83,3.1-1.32,4.84-1.32c1.31,0,2.56.25,3.73.75s2.22,1.23,3.14,2.19c.92.96,1.64,2.14,2.15,3.53.51,1.39.77,2.99.77,4.78,0,2.34-.45,4.34-1.36,6-.91,1.66-2.11,2.93-3.59,3.81-1.49.88-3.1,1.32-4.83,1.32ZM907.43,372.86c1.29,0,2.42-.36,3.39-1.07.97-.71,1.74-1.7,2.29-2.96.55-1.26.83-2.74.83-4.42s-.28-3.2-.83-4.48c-.55-1.28-1.32-2.27-2.29-2.98-.97-.71-2.1-1.07-3.39-1.07s-2.39.35-3.38,1.07c-.99.71-1.75,1.7-2.29,2.98-.54,1.28-.81,2.77-.81,4.48s.27,3.16.81,4.42,1.3,2.25,2.29,2.96c.99.71,2.11,1.07,3.38,1.07Z"/>
    <path class="cls-1" d="M926.53,375.54c-.82,0-1.48-.17-1.99-.51s-.9-.84-1.14-1.5c-.25-.66-.38-1.46-.38-2.41v-27.51h3.24v27.75c0,.53.1.91.3,1.14.2.24.43.36.69.36.08,0,.17,0,.28-.02.11-.01.26-.03.47-.06l.47,2.49c-.26.05-.54.11-.83.18-.29.07-.66.1-1.11.1Z"/>
    <path class="cls-1" d="M942.2,375.54c-1.74,0-3.35-.44-4.83-1.32-1.49-.88-2.68-2.15-3.59-3.81-.91-1.66-1.36-3.66-1.36-6s.45-4.43,1.36-6.1c.91-1.67,2.11-2.95,3.59-3.83s3.1-1.32,4.83-1.32c1.32,0,2.56.25,3.73.75s2.22,1.23,3.14,2.19c.92.96,1.64,2.14,2.15,3.53s.77,2.99.77,4.78c0,2.34-.45,4.34-1.36,6-.91,1.66-2.11,2.93-3.59,3.81-1.49.88-3.1,1.32-4.83,1.32ZM942.2,372.86c1.29,0,2.42-.36,3.39-1.07.97-.71,1.74-1.7,2.29-2.96.55-1.26.83-2.74.83-4.42s-.28-3.2-.83-4.48c-.55-1.28-1.32-2.27-2.29-2.98-.97-.71-2.1-1.07-3.39-1.07s-2.39.35-3.37,1.07c-.99.71-1.75,1.7-2.29,2.98-.54,1.28-.81,2.77-.81,4.48s.27,3.16.81,4.42c.54,1.26,1.3,2.25,2.29,2.96.99.71,2.11,1.07,3.37,1.07Z"/>
    <path class="cls-1" d="M964.93,384.93c-1.74,0-3.27-.22-4.6-.67-1.33-.45-2.36-1.1-3.1-1.95-.74-.86-1.1-1.89-1.1-3.1,0-.92.28-1.82.83-2.68s1.33-1.62,2.33-2.25v-.16c-.53-.34-.97-.8-1.34-1.38-.37-.58-.55-1.29-.55-2.13,0-.89.26-1.68.77-2.35.51-.67,1.05-1.19,1.6-1.56v-.16c-.71-.58-1.36-1.37-1.93-2.37s-.87-2.13-.87-3.39c0-1.55.36-2.9,1.07-4.04.71-1.15,1.67-2.03,2.88-2.64,1.21-.62,2.51-.93,3.91-.93.63,0,1.2.05,1.7.16s.93.24,1.3.39h7.38v2.49h-4.5c.55.53,1,1.19,1.34,1.99s.51,1.69.51,2.66c0,1.47-.34,2.77-1.03,3.89s-1.61,1.99-2.78,2.6c-1.17.62-2.48.93-3.93.93-.5,0-1.04-.07-1.62-.22-.58-.14-1.12-.34-1.62-.57-.39.34-.74.72-1.03,1.12-.29.41-.43.93-.43,1.56,0,.68.27,1.26.81,1.72.54.46,1.54.69,3.02.69h4.3c2.42,0,4.24.4,5.47,1.2s1.84,2.07,1.84,3.81c0,1.29-.43,2.5-1.3,3.63-.87,1.13-2.1,2.03-3.69,2.7-1.59.67-3.47,1.01-5.62,1.01ZM965.37,382.68c1.42,0,2.66-.22,3.71-.67,1.05-.45,1.87-1.02,2.45-1.72s.87-1.43.87-2.19c0-1.05-.38-1.79-1.14-2.21s-1.87-.63-3.31-.63h-3.91c-.34,0-.76-.02-1.24-.06-.49-.04-.98-.12-1.48-.26-.82.55-1.4,1.16-1.76,1.83-.35.67-.53,1.34-.53,1.99,0,1.16.56,2.1,1.68,2.82s2.68,1.09,4.68,1.09ZM964.81,366.03c.89,0,1.7-.22,2.41-.65.71-.43,1.29-1.05,1.74-1.83s.67-1.71.67-2.76c0-1.11-.22-2.05-.65-2.82-.43-.78-1.01-1.37-1.74-1.78-.72-.41-1.53-.61-2.43-.61s-1.66.2-2.37.61c-.71.41-1.28,1-1.72,1.78-.43.78-.65,1.72-.65,2.82s.22,1.97.65,2.76c.43.79,1.01,1.4,1.74,1.83.72.43,1.51.65,2.35.65Z"/>
    <path class="cls-1" d="M980.52,384.34c-.47,0-.92-.04-1.32-.12-.41-.08-.77-.18-1.09-.32l.63-2.6c.21.08.47.16.77.24.3.08.6.12.89.12,1.24,0,2.25-.46,3.04-1.38s1.43-2.08,1.93-3.47l.47-1.66-8.6-21.43h3.35l4.54,12.2c.34.95.69,1.94,1.05,2.98.35,1.04.72,2.05,1.08,3.02h.2c.29-.97.59-1.98.91-3.02.32-1.04.62-2.03.91-2.98l3.99-12.2h3.16l-8.13,23.33c-.45,1.34-1.02,2.57-1.72,3.67-.7,1.1-1.53,1.99-2.51,2.64-.97.66-2.16.99-3.55.99Z"/>
    <path class="cls-1" d="M792.14,422.9c-1.68,0-3.18-.34-4.5-1.03-1.32-.68-2.34-1.62-3.08-2.8-.74-1.18-1.11-2.55-1.11-4.1,0-1.42.32-2.67.95-3.75.63-1.08,1.45-2.04,2.45-2.88,1-.84,2.06-1.63,3.18-2.37,1.12-.74,2.18-1.47,3.18-2.19,1-.72,1.82-1.5,2.45-2.33.63-.83.95-1.77.95-2.82,0-.58-.1-1.12-.3-1.62s-.5-.91-.91-1.22c-.41-.32-.94-.47-1.6-.47-1.16,0-2.07.42-2.72,1.26-.66.84-.99,1.87-.99,3.08,0,1.37.33,2.83.99,4.38.66,1.55,1.54,3.1,2.64,4.64,1.11,1.54,2.33,3,3.67,4.38,1.34,1.38,2.7,2.6,4.07,3.65,1.13.87,2.24,1.6,3.31,2.19,1.08.59,2.08,1.03,3,1.32l-.87,2.68c-1.13-.32-2.31-.81-3.55-1.48s-2.51-1.52-3.83-2.55c-1.53-1.24-3.02-2.64-4.48-4.2-1.46-1.57-2.77-3.2-3.93-4.91-1.16-1.71-2.08-3.43-2.76-5.17-.69-1.74-1.03-3.37-1.03-4.89,0-1.26.27-2.4.81-3.41.54-1.01,1.3-1.82,2.27-2.41s2.1-.89,3.39-.89c1.71,0,3.05.52,4.01,1.56.96,1.04,1.44,2.38,1.44,4.01,0,1.24-.3,2.35-.91,3.33-.61.99-1.39,1.89-2.35,2.72-.96.83-1.98,1.62-3.06,2.39-1.08.76-2.1,1.54-3.06,2.33-.96.79-1.75,1.62-2.37,2.51-.62.88-.93,1.86-.93,2.94s.27,2.07.81,2.9c.54.83,1.26,1.47,2.15,1.93s1.88.69,2.96.69c1.24,0,2.42-.32,3.55-.95s2.18-1.46,3.16-2.49c1.18-1.29,2.21-2.78,3.08-4.46.87-1.68,1.56-3.51,2.09-5.49h3.04c-.63,2.16-1.44,4.21-2.43,6.16-.99,1.95-2.18,3.74-3.57,5.37-1.16,1.32-2.5,2.39-4.03,3.22-1.53.83-3.28,1.24-5.25,1.24Z"/>
    <path class="cls-1" d="M821.27,422.39v-28.89h4.03l5.64,15.83c.37.97.73,1.98,1.08,3.02.36,1.04.7,2.07,1.05,3.1h.2c.34-1.03.68-2.06,1.03-3.1.34-1.04.67-2.04.99-3.02l5.64-15.83h4.03v28.89h-3.04v-16.7c0-.84.02-1.74.06-2.7.04-.96.09-1.93.16-2.92.07-.99.12-1.9.18-2.74h-.16l-2.29,6.55-5.64,15.55h-2.29l-5.64-15.55-2.29-6.55h-.16c.08.84.14,1.76.2,2.74.05.99.1,1.96.14,2.92.04.96.06,1.86.06,2.7v16.7h-2.96Z"/>
    <path class="cls-1" d="M861.21,422.9c-1.89,0-3.6-.44-5.13-1.32-1.53-.88-2.74-2.16-3.65-3.83-.91-1.67-1.36-3.66-1.36-5.98,0-1.76.26-3.33.77-4.7.51-1.37,1.22-2.55,2.13-3.53.91-.99,1.93-1.74,3.06-2.25s2.32-.77,3.55-.77c1.76,0,3.27.4,4.52,1.2s2.21,1.95,2.88,3.45c.67,1.5,1.01,3.28,1.01,5.33,0,.34-.01.68-.04,1.01-.03.33-.07.64-.12.93h-14.56c.05,1.58.39,2.95,1.03,4.12s1.48,2.08,2.55,2.74c1.07.66,2.31.99,3.73.99,1.05,0,2.01-.15,2.88-.45.87-.3,1.71-.73,2.53-1.28l1.14,2.21c-.89.58-1.9,1.08-3.02,1.5-1.12.42-2.41.63-3.89.63ZM854.23,410.08h11.92c0-2.26-.49-3.99-1.46-5.17-.97-1.18-2.33-1.78-4.07-1.78-1.05,0-2.04.28-2.96.83-.92.55-1.68,1.34-2.29,2.37s-.99,2.28-1.14,3.75Z"/>
    <path class="cls-1" d="M880.31,422.9c-1.47,0-2.64-.29-3.51-.87-.87-.58-1.48-1.39-1.83-2.43s-.53-2.26-.53-3.65v-12.27h-3.24v-2.41l3.36-.2.39-6.04h2.68v6.04h5.88v2.6h-5.88v12.39c0,1.32.24,2.34.71,3.08.47.74,1.35,1.11,2.64,1.11.4,0,.82-.06,1.28-.18.46-.12.86-.26,1.21-.42l.67,2.45c-.61.21-1.24.39-1.91.55-.67.16-1.31.24-1.91.24Z"/>
    <path class="cls-1" d="M888.41,422.39v-31.42h3.24v8.72l-.12,4.46c1-1,2.07-1.85,3.22-2.57,1.14-.71,2.45-1.07,3.93-1.07,2.24,0,3.88.7,4.93,2.11,1.05,1.41,1.58,3.48,1.58,6.22v13.54h-3.24v-13.14c0-2.05-.33-3.55-.99-4.5s-1.74-1.42-3.24-1.42c-1.13,0-2.15.29-3.06.87s-1.92,1.43-3.02,2.57v15.63h-3.24Z"/>
    <path class="cls-1" d="M920.33,422.9c-1.74,0-3.35-.44-4.83-1.32-1.49-.88-2.68-2.15-3.59-3.81-.91-1.66-1.36-3.66-1.36-6s.45-4.43,1.36-6.1,2.1-2.95,3.59-3.83c1.49-.88,3.1-1.32,4.83-1.32,1.32,0,2.56.25,3.73.75,1.17.5,2.22,1.23,3.14,2.19.92.96,1.64,2.14,2.15,3.53.51,1.39.77,2.99.77,4.78,0,2.34-.46,4.34-1.36,6-.91,1.66-2.1,2.93-3.59,3.81-1.49.88-3.1,1.32-4.84,1.32ZM920.33,420.22c1.29,0,2.42-.36,3.39-1.07.97-.71,1.74-1.7,2.29-2.96s.83-2.74.83-4.42-.28-3.2-.83-4.48c-.55-1.28-1.32-2.27-2.29-2.98-.97-.71-2.11-1.07-3.39-1.07s-2.39.35-3.37,1.07c-.99.71-1.75,1.7-2.29,2.98-.54,1.28-.81,2.77-.81,4.48s.27,3.16.81,4.42c.54,1.26,1.3,2.25,2.29,2.96.99.71,2.11,1.07,3.37,1.07Z"/>
    <path class="cls-1" d="M943.15,422.9c-1.79,0-3.34-.43-4.66-1.3-1.32-.87-2.34-2.13-3.06-3.79-.72-1.66-1.09-3.67-1.09-6.04s.43-4.31,1.3-5.98c.87-1.67,2.01-2.97,3.41-3.89,1.41-.92,2.94-1.38,4.6-1.38,1.24,0,2.31.22,3.24.67.92.45,1.87,1.07,2.84,1.85l-.16-3.75v-8.33h3.2v31.42h-2.64l-.28-2.57h-.12c-.84.84-1.82,1.57-2.94,2.17-1.12.6-2.33.91-3.65.91ZM943.82,420.18c1.03,0,2.01-.26,2.94-.77.93-.51,1.88-1.27,2.82-2.27v-11.53c-.95-.87-1.86-1.48-2.74-1.83-.88-.36-1.78-.53-2.7-.53-1.18,0-2.27.36-3.26,1.08-.99.72-1.77,1.72-2.35,3-.58,1.28-.87,2.74-.87,4.4s.24,3.24.73,4.5c.49,1.26,1.19,2.24,2.11,2.92.92.68,2.03,1.03,3.32,1.03Z"/>
    <path class="cls-1" d="M968.37,422.9c-1.74,0-3.35-.44-4.84-1.32-1.49-.88-2.68-2.15-3.59-3.81-.91-1.66-1.36-3.66-1.36-6s.46-4.43,1.36-6.1,2.1-2.95,3.59-3.83,3.1-1.32,4.84-1.32c1.31,0,2.56.25,3.73.75s2.22,1.23,3.14,2.19c.92.96,1.64,2.14,2.15,3.53.51,1.39.77,2.99.77,4.78,0,2.34-.45,4.34-1.36,6-.91,1.66-2.11,2.93-3.59,3.81-1.49.88-3.1,1.32-4.83,1.32ZM968.37,420.22c1.29,0,2.42-.36,3.39-1.07.97-.71,1.74-1.7,2.29-2.96.55-1.26.83-2.74.83-4.42s-.28-3.2-.83-4.48c-.55-1.28-1.32-2.27-2.29-2.98-.97-.71-2.1-1.07-3.39-1.07s-2.39.35-3.38,1.07c-.99.71-1.75,1.7-2.29,2.98-.54,1.28-.81,2.77-.81,4.48s.27,3.16.81,4.42,1.3,2.25,2.29,2.96c.99.71,2.11,1.07,3.38,1.07Z"/>
    <path class="cls-1" d="M987.47,422.9c-.82,0-1.48-.17-1.99-.51s-.9-.84-1.14-1.5c-.25-.66-.38-1.46-.38-2.41v-27.51h3.24v27.75c0,.53.1.91.3,1.14.2.24.43.36.69.36.08,0,.17,0,.28-.02.11-.01.26-.03.47-.06l.47,2.49c-.26.05-.54.11-.83.18-.29.07-.66.1-1.11.1Z"/>
    <path class="cls-1" d="M1003.14,422.9c-1.74,0-3.35-.44-4.83-1.32-1.49-.88-2.68-2.15-3.59-3.81-.91-1.66-1.36-3.66-1.36-6s.45-4.43,1.36-6.1,2.1-2.95,3.59-3.83c1.49-.88,3.1-1.32,4.83-1.32,1.32,0,2.56.25,3.73.75,1.17.5,2.22,1.23,3.14,2.19.92.96,1.64,2.14,2.15,3.53.51,1.39.77,2.99.77,4.78,0,2.34-.46,4.34-1.36,6-.91,1.66-2.1,2.93-3.59,3.81-1.49.88-3.1,1.32-4.84,1.32ZM1003.14,420.22c1.29,0,2.42-.36,3.39-1.07.97-.71,1.74-1.7,2.29-2.96s.83-2.74.83-4.42-.28-3.2-.83-4.48c-.55-1.28-1.32-2.27-2.29-2.98-.97-.71-2.11-1.07-3.39-1.07s-2.39.35-3.37,1.07c-.99.71-1.75,1.7-2.29,2.98-.54,1.28-.81,2.77-.81,4.48s.27,3.16.81,4.42c.54,1.26,1.3,2.25,2.29,2.96.99.71,2.11,1.07,3.37,1.07Z"/>
    <path class="cls-1" d="M1025.87,432.3c-1.74,0-3.27-.22-4.6-.67-1.33-.45-2.36-1.1-3.1-1.95-.74-.86-1.11-1.89-1.11-3.1,0-.92.28-1.82.83-2.68.55-.87,1.33-1.62,2.33-2.25v-.16c-.53-.34-.97-.8-1.34-1.38-.37-.58-.55-1.29-.55-2.13,0-.89.26-1.68.77-2.35s1.05-1.19,1.6-1.56v-.16c-.71-.58-1.36-1.37-1.93-2.37-.58-1-.87-2.13-.87-3.39,0-1.55.35-2.9,1.06-4.04.71-1.15,1.67-2.03,2.88-2.64,1.21-.62,2.51-.93,3.91-.93.63,0,1.2.05,1.7.16s.93.24,1.3.39h7.38v2.49h-4.5c.55.53,1,1.19,1.34,1.99s.51,1.69.51,2.66c0,1.47-.34,2.77-1.03,3.89-.68,1.12-1.61,1.99-2.78,2.6-1.17.62-2.48.93-3.93.93-.5,0-1.04-.07-1.62-.22s-1.12-.34-1.62-.57c-.39.34-.74.72-1.03,1.12s-.43.93-.43,1.56c0,.68.27,1.26.81,1.72.54.46,1.55.69,3.02.69h4.3c2.42,0,4.24.4,5.47,1.2,1.22.8,1.83,2.07,1.83,3.81,0,1.29-.43,2.5-1.3,3.63-.87,1.13-2.1,2.03-3.69,2.7s-3.47,1.01-5.62,1.01ZM1026.3,430.05c1.42,0,2.66-.22,3.71-.67,1.05-.45,1.87-1.02,2.45-1.72.58-.7.87-1.43.87-2.19,0-1.05-.38-1.79-1.14-2.21-.76-.42-1.87-.63-3.32-.63h-3.91c-.34,0-.76-.02-1.24-.06-.49-.04-.98-.12-1.48-.26-.82.55-1.4,1.16-1.76,1.83-.35.67-.53,1.34-.53,1.99,0,1.16.56,2.1,1.68,2.82,1.12.72,2.68,1.09,4.68,1.09ZM1025.75,413.39c.89,0,1.7-.22,2.41-.65.71-.43,1.29-1.05,1.74-1.83.45-.79.67-1.71.67-2.76,0-1.11-.22-2.05-.65-2.82-.43-.78-1.01-1.37-1.74-1.78-.72-.41-1.53-.61-2.43-.61s-1.66.2-2.37.61-1.28,1-1.72,1.78c-.43.78-.65,1.72-.65,2.82s.22,1.97.65,2.76,1.01,1.4,1.74,1.83c.72.43,1.51.65,2.35.65Z"/>
    <path class="cls-1" d="M1041.46,431.7c-.47,0-.92-.04-1.32-.12-.41-.08-.77-.18-1.08-.32l.63-2.6c.21.08.47.16.77.24.3.08.6.12.89.12,1.24,0,2.25-.46,3.04-1.38s1.43-2.08,1.93-3.47l.47-1.66-8.6-21.43h3.36l4.54,12.2c.34.95.69,1.94,1.04,2.98.36,1.04.72,2.05,1.09,3.02h.2c.29-.97.59-1.98.91-3.02.32-1.04.62-2.03.91-2.98l3.99-12.2h3.16l-8.13,23.33c-.45,1.34-1.02,2.57-1.72,3.67-.7,1.1-1.53,1.99-2.51,2.64-.97.66-2.16.99-3.55.99Z"/>
  </g>
</svg>